<svg width="32" height="32" viewBox="0 0 32 32" fill="none" xmlns="http://www.w3.org/2000/svg">
<rect x="0.5" y="0.5" width="31" height="31" rx="15.5" stroke="#DEDEDE"/>
<path d="M21.5 15.5H11.5252L15.3447 11.862C15.5447 11.6715 15.5525 11.355 15.362 11.155C15.1718 10.9552 14.8553 10.9472 14.655 11.1377L10.293 15.2927C10.1042 15.4818 10 15.7327 10 16C10 16.267 10.1042 16.5182 10.3017 16.7155L14.6553 20.862C14.752 20.9543 14.876 21 15 21C15.132 21 15.264 20.948 15.3622 20.8448C15.5527 20.6448 15.545 20.3285 15.345 20.138L11.5095 16.5H21.5C21.776 16.5 22 16.276 22 16C22 15.724 21.776 15.5 21.5 15.5Z" fill="#8D7979"/>
</svg>
