<svg width="36" height="36" viewBox="0 0 36 36" fill="none" xmlns="http://www.w3.org/2000/svg">
<path d="M4.18047 3.42001C4.3223 3.37813 4.47099 3.36463 4.61804 3.38027C4.76509 3.39592 4.90761 3.44039 5.03746 3.51117C5.1673 3.58194 5.28192 3.67762 5.37475 3.79273C5.46758 3.90784 5.53681 4.04012 5.57847 4.18201L6.40347 6.97501H28.386C31.146 6.97501 33.2535 9.55051 32.4585 12.24L29.976 20.64C29.448 22.431 27.7695 23.625 25.9035 23.625H12.1695C10.3035 23.625 8.62647 22.431 8.09697 20.64L3.42147 4.81951C3.33678 4.53348 3.36917 4.22551 3.5115 3.96335C3.65383 3.70119 3.89446 3.50479 4.18047 3.42001ZM9.37497 29.25C9.37497 28.3549 9.73055 27.4965 10.3635 26.8635C10.9964 26.2306 11.8549 25.875 12.75 25.875C13.6451 25.875 14.5035 26.2306 15.1365 26.8635C15.7694 27.4965 16.125 28.3549 16.125 29.25C16.125 30.1451 15.7694 31.0036 15.1365 31.6365C14.5035 32.2694 13.6451 32.625 12.75 32.625C11.8549 32.625 10.9964 32.2694 10.3635 31.6365C9.73055 31.0036 9.37497 30.1451 9.37497 29.25ZM21.375 29.25C21.375 28.8068 21.4623 28.3679 21.6319 27.9585C21.8015 27.549 22.0501 27.1769 22.3635 26.8635C22.6769 26.5501 23.0489 26.3015 23.4584 26.1319C23.8679 25.9623 24.3068 25.875 24.75 25.875C25.1932 25.875 25.6321 25.9623 26.0415 26.1319C26.451 26.3015 26.8231 26.5501 27.1365 26.8635C27.4499 27.1769 27.6985 27.549 27.8681 27.9585C28.0377 28.3679 28.125 28.8068 28.125 29.25C28.125 30.1451 27.7694 31.0036 27.1365 31.6365C26.5035 32.2694 25.6451 32.625 24.75 32.625C23.8549 32.625 22.9964 32.2694 22.3635 31.6365C21.7306 31.0036 21.375 30.1451 21.375 29.25Z" fill="url(#paint0_linear_18_131)"/>
<defs>
<linearGradient id="paint0_linear_18_131" x1="32.6281" y1="17.9995" x2="3.37518" y2="17.9995" gradientUnits="userSpaceOnUse">
<stop stop-color="#6CE0FF"/>
<stop offset="1" stop-color="#B5E348"/>
</linearGradient>
</defs>
</svg>
