<svg width="55" height="51" viewBox="0 0 55 51" fill="none" xmlns="http://www.w3.org/2000/svg">
<path d="M17.14 35.96V50H13.72V41.58L10.58 50H7.82L4.66 41.56V50H1.24V35.96H5.28L9.22 45.68L13.12 35.96H17.14ZM24.6794 50.16C23.586 50.16 22.5994 49.9267 21.7194 49.46C20.8527 48.9933 20.166 48.3267 19.6594 47.46C19.166 46.5933 18.9194 45.58 18.9194 44.42C18.9194 43.2733 19.1727 42.2667 19.6794 41.4C20.186 40.52 20.8794 39.8467 21.7594 39.38C22.6394 38.9133 23.626 38.68 24.7194 38.68C25.8127 38.68 26.7994 38.9133 27.6794 39.38C28.5594 39.8467 29.2527 40.52 29.7594 41.4C30.266 42.2667 30.5194 43.2733 30.5194 44.42C30.5194 45.5667 30.2594 46.58 29.7394 47.46C29.2327 48.3267 28.5327 48.9933 27.6394 49.46C26.7594 49.9267 25.7727 50.16 24.6794 50.16ZM24.6794 47.2C25.3327 47.2 25.886 46.96 26.3394 46.48C26.806 46 27.0394 45.3133 27.0394 44.42C27.0394 43.5267 26.8127 42.84 26.3594 42.36C25.9194 41.88 25.3727 41.64 24.7194 41.64C24.0527 41.64 23.4994 41.88 23.0594 42.36C22.6194 42.8267 22.3994 43.5133 22.3994 44.42C22.3994 45.3133 22.6127 46 23.0394 46.48C23.4794 46.96 24.026 47.2 24.6794 47.2ZM35.7538 40.7C36.1538 40.0867 36.6538 39.6067 37.2538 39.26C37.8538 38.9 38.5204 38.72 39.2538 38.72V42.34H38.3138C37.4604 42.34 36.8204 42.5267 36.3938 42.9C35.9671 43.26 35.7538 43.9 35.7538 44.82V50H32.3338V38.84H35.7538V40.7ZM51.4084 44.24C51.4084 44.56 51.3884 44.8933 51.3484 45.24H43.6084C43.6618 45.9333 43.8818 46.4667 44.2684 46.84C44.6684 47.2 45.1551 47.38 45.7284 47.38C46.5818 47.38 47.1751 47.02 47.5084 46.3H51.1484C50.9618 47.0333 50.6218 47.6933 50.1284 48.28C49.6484 48.8667 49.0418 49.3267 48.3084 49.66C47.5751 49.9933 46.7551 50.16 45.8484 50.16C44.7551 50.16 43.7818 49.9267 42.9284 49.46C42.0751 48.9933 41.4084 48.3267 40.9284 47.46C40.4484 46.5933 40.2084 45.58 40.2084 44.42C40.2084 43.26 40.4418 42.2467 40.9084 41.38C41.3884 40.5133 42.0551 39.8467 42.9084 39.38C43.7618 38.9133 44.7418 38.68 45.8484 38.68C46.9284 38.68 47.8884 38.9067 48.7284 39.36C49.5684 39.8133 50.2218 40.46 50.6884 41.3C51.1684 42.14 51.4084 43.12 51.4084 44.24ZM47.9084 43.34C47.9084 42.7533 47.7084 42.2867 47.3084 41.94C46.9084 41.5933 46.4084 41.42 45.8084 41.42C45.2351 41.42 44.7484 41.5867 44.3484 41.92C43.9618 42.2533 43.7218 42.7267 43.6284 43.34H47.9084Z" fill="url(#paint0_linear_238_239)"/>
<rect x="22.4686" width="27.4685" height="7.94751" rx="3.97375" transform="rotate(34.2127 22.4686 0)" fill="#D9D9D9"/>
<rect x="18.4946" y="24.885" width="26.1511" height="7.94751" rx="3.97375" transform="rotate(-30.1067 18.4946 24.885)" fill="url(#paint1_linear_238_239)"/>
<defs>
<linearGradient id="paint0_linear_238_239" x1="0" y1="37.5" x2="55" y2="37.5" gradientUnits="userSpaceOnUse">
<stop stop-color="#A7D553"/>
<stop offset="1" stop-color="#36DFF1"/>
</linearGradient>
<linearGradient id="paint1_linear_238_239" x1="18.4946" y1="28.8588" x2="44.6458" y2="28.8588" gradientUnits="userSpaceOnUse">
<stop stop-color="#B5E348"/>
<stop offset="1" stop-color="#36DFF1"/>
</linearGradient>
</defs>
</svg>
