<svg width="33" height="33" viewBox="0 0 33 33" fill="none" xmlns="http://www.w3.org/2000/svg">
<path d="M13.75 8.25H9.625C8.89565 8.25 8.19618 8.53973 7.68046 9.05546C7.16473 9.57118 6.875 10.2707 6.875 11V23.375C6.875 24.1043 7.16473 24.8038 7.68046 25.3195C8.19618 25.8353 8.89565 26.125 9.625 26.125H22C22.7293 26.125 23.4288 25.8353 23.9445 25.3195C24.4603 24.8038 24.75 24.1043 24.75 23.375V19.25M19.25 9.625C19.25 10.719 19.6846 11.7682 20.4582 12.5418C21.2318 13.3154 22.281 13.75 23.375 13.75C24.469 13.75 25.5182 13.3154 26.2918 12.5418C27.0654 11.7682 27.5 10.719 27.5 9.625C27.5 8.53098 27.0654 7.48177 26.2918 6.70818C25.5182 5.9346 24.469 5.5 23.375 5.5C22.281 5.5 21.2318 5.9346 20.4582 6.70818C19.6846 7.48177 19.25 8.53098 19.25 9.625Z" stroke="black" stroke-width="2" stroke-linecap="round" stroke-linejoin="round"/>
</svg>
