<svg width="24" height="24" viewBox="0 0 24 24" fill="none" xmlns="http://www.w3.org/2000/svg">
<path d="M3 7C2.71667 7 2.47933 6.904 2.288 6.712C2.09667 6.52 2.00067 6.28267 2 6V3C2 2.71667 2.096 2.47933 2.288 2.288C2.48 2.09667 2.71733 2.00067 3 2H6C6.28333 2 6.521 2.096 6.713 2.288C6.905 2.48 7.00067 2.71733 7 3C6.99933 3.28267 6.90333 3.52033 6.712 3.713C6.52067 3.90567 6.28333 4.00133 6 4H4V6C4 6.28333 3.904 6.521 3.712 6.713C3.52 6.905 3.28267 7.00067 3 7ZM3 22C2.71667 22 2.47933 21.904 2.288 21.712C2.09667 21.52 2.00067 21.2827 2 21V18C2 17.7167 2.096 17.4793 2.288 17.288C2.48 17.0967 2.71733 17.0007 3 17C3.28267 16.9993 3.52033 17.0953 3.713 17.288C3.90567 17.4807 4.00133 17.718 4 18V20H6C6.28333 20 6.521 20.096 6.713 20.288C6.905 20.48 7.00067 20.7173 7 21C6.99933 21.2827 6.90333 21.5203 6.712 21.713C6.52067 21.9057 6.28333 22.0013 6 22H3ZM18 22C17.7167 22 17.4793 21.904 17.288 21.712C17.0967 21.52 17.0007 21.2827 17 21C16.9993 20.7173 17.0953 20.48 17.288 20.288C17.4807 20.096 17.718 20 18 20H20V18C20 17.7167 20.096 17.4793 20.288 17.288C20.48 17.0967 20.7173 17.0007 21 17C21.2827 16.9993 21.5203 17.0953 21.713 17.288C21.9057 17.4807 22.0013 17.718 22 18V21C22 21.2833 21.904 21.521 21.712 21.713C21.52 21.905 21.2827 22.0007 21 22H18ZM21 7C20.7167 7 20.4793 6.904 20.288 6.712C20.0967 6.52 20.0007 6.28267 20 6V4H18C17.7167 4 17.4793 3.904 17.288 3.712C17.0967 3.52 17.0007 3.28267 17 3C16.9993 2.71733 17.0953 2.48 17.288 2.288C17.4807 2.096 17.718 2 18 2H21C21.2833 2 21.521 2.096 21.713 2.288C21.905 2.48 22.0007 2.71733 22 3V6C22 6.28333 21.904 6.521 21.712 6.713C21.52 6.905 21.2827 7.00067 21 7ZM17.5 19V17.5H19V19H17.5ZM17.5 16V14.5H19V16H17.5ZM16 17.5V16H17.5V17.5H16ZM14.5 19V17.5H16V19H14.5ZM13 17.5V16H14.5V17.5H13ZM16 14.5V13H17.5V14.5H16ZM14.5 16V14.5H16V16H14.5ZM13 14.5V13H14.5V14.5H13ZM14 11C13.7167 11 13.4793 10.904 13.288 10.712C13.0967 10.52 13.0007 10.2827 13 10V6C13 5.71667 13.096 5.47933 13.288 5.288C13.48 5.09667 13.7173 5.00067 14 5H18C18.2833 5 18.521 5.096 18.713 5.288C18.905 5.48 19.0007 5.71733 19 6V10C19 10.2833 18.904 10.521 18.712 10.713C18.52 10.905 18.2827 11.0007 18 11H14ZM6 19C5.71667 19 5.47933 18.904 5.288 18.712C5.09667 18.52 5.00067 18.2827 5 18V14C5 13.7167 5.096 13.4793 5.288 13.288C5.48 13.0967 5.71733 13.0007 6 13H10C10.2833 13 10.521 13.096 10.713 13.288C10.905 13.48 11.0007 13.7173 11 14V18C11 18.2833 10.904 18.521 10.712 18.713C10.52 18.905 10.2827 19.0007 10 19H6ZM6 11C5.71667 11 5.47933 10.904 5.288 10.712C5.09667 10.52 5.00067 10.2827 5 10V6C5 5.71667 5.096 5.47933 5.288 5.288C5.48 5.09667 5.71733 5.00067 6 5H10C10.2833 5 10.521 5.096 10.713 5.288C10.905 5.48 11.0007 5.71733 11 6V10C11 10.2833 10.904 10.521 10.712 10.713C10.52 10.905 10.2827 11.0007 10 11H6ZM6.5 17.5H9.5V14.5H6.5V17.5ZM6.5 9.5H9.5V6.5H6.5V9.5ZM14.5 9.5H17.5V6.5H14.5V9.5Z" fill="black"/>
</svg>
