<?xml version="1.0" encoding="UTF-8"?>
<!DOCTYPE svg PUBLIC "-//W3C//DTD SVG 1.1//EN" "http://www.w3.org/Graphics/SVG/1.1/DTD/svg11.dtd">
<!-- Creator: CorelDRAW X7 -->
<svg xmlns="http://www.w3.org/2000/svg" xml:space="preserve" width="132.644mm" height="132.644mm" version="1.1" style="shape-rendering:geometricPrecision; text-rendering:geometricPrecision; image-rendering:optimizeQuality; fill-rule:evenodd; clip-rule:evenodd"
viewBox="0 0 13264 13264"
 xmlns:xlink="http://www.w3.org/1999/xlink">
 <defs>
  <style type="text/css">
   <![CDATA[
    .fil0 {fill:none}
    .fil5 {fill:#FEFEFE}
    .fil1 {fill:#1D1819}
    .fil4 {fill:#69C9D0}
    .fil3 {fill:#EE1D52}
    .fil2 {fill:white;fill-opacity:0.250980}
    .fil6 {fill:#FEFEFE;fill-opacity:0.309804}
   ]]>
  </style>
 </defs>
 <g id="Layer_x0020_1">
  <metadata id="CorelCorpID_0Corel-Layer"/>
  <rect class="fil0" width="13264" height="13264"/>
  <g id="_2991431344912">
   <path class="fil1" d="M3725 1812l5814 0c1053,0 1914,861 1914,1913l0 5814c0,1053 -861,1914 -1914,1914l-5814 0c-1052,0 -1913,-861 -1913,-1914l0 -5814c0,-1052 861,-1913 1913,-1913z"/>
   <path class="fil2" d="M8020 3469c3,142 39,620 364,1022 231,152 539,264 947,296l0 255c103,22 215,38 335,48l0 1197c-170,-6 -1145,-56 -1645,-512l0 2399c0,1209 -978,2190 -2184,2190 -643,0 -1222,-279 -1621,-723 -544,-398 -898,-1043 -898,-1770 0,-1210 978,-2190 2184,-2190 101,0 201,6 298,20l0 282 37 0c101,0 200,7 298,20l0 1207c-98,-32 -201,-49 -309,-49 -550,0 -995,446 -995,995 0,211 66,406 178,567 143,80 307,125 482,125 787,0 1015,-652 1015,-1274l0 -4449 1180 0 0 41c1,51 6,144 27,261l307 0 0 42z"/>
   <g>
    <path class="fil3" d="M5631 6746c-549,0 -995,446 -995,995 0,375 207,701 513,870 -112,-161 -178,-356 -178,-567 0,-550 446,-995 995,-995 108,0 212,17 309,49l0 -1207c-97,-13 -197,-20 -298,-20 -12,0 -25,0 -37,0l0 924c-97,-31 -201,-49 -309,-49zm2222 -3431c54,301 212,761 671,1064 -325,-403 -360,-881 -363,-1022l0 -42 -308 0zm-27 4444c0,1210 -977,2190 -2184,2190 -481,0 -925,-156 -1286,-420 400,444 978,723 1621,723 1206,0 2184,-981 2184,-2191l0 -2398c500,456 1475,506 1645,512l0 -1197c-120,-10 -231,-26 -335,-49l0 943c-170,-5 -1145,-56 -1645,-511l0 2398z"/>
    <path class="fil4" d="M3793 8061c0,-1197 958,-2170 2147,-2190l0 -282c-97,-14 -197,-21 -298,-21 -1206,0 -2184,981 -2184,2191 0,727 354,1372 898,1770 -350,-388 -563,-903 -563,-1468zm4731 -3682c195,239 492,452 947,550l0 -254c-408,-32 -716,-144 -947,-296zm-1877 3083c0,622 -229,1274 -1016,1274 -175,0 -339,-45 -482,-125 180,258 479,427 817,427 787,0 1015,-651 1015,-1273l0 -4450 872 0c-21,-117 -26,-210 -27,-261l0 -41 -1179 0 0 4449z"/>
    <path class="fil5" d="M6981 3315l0 4450c0,622 -228,1273 -1015,1273 -338,0 -637,-169 -817,-427 -306,-169 -513,-495 -513,-870 0,-549 446,-995 995,-995 108,0 212,18 309,49l0 -924c-1189,20 -2147,993 -2147,2190 0,565 213,1080 563,1468 361,264 805,420 1286,420 1207,0 2184,-980 2184,-2190l0 -2398c500,455 1475,506 1645,511l0 -943c-455,-98 -752,-311 -947,-550 -459,-303 -617,-763 -671,-1064l-872 0z"/>
   </g>
   <path class="fil6" d="M9328 2600c732,0 1331,607 1331,1349l0 5586c0,742 -599,1349 -1331,1349l442 0c732,0 1331,-607 1331,-1349l0 -6033c0,-742 -599,-1349 -1331,-1349l-5952 0c-732,0 -1331,607 -1331,1349l0 447c0,-742 599,-1349 1331,-1349l5510 0z"/>
  </g>
 </g>
</svg>
