<svg width="108" height="28" viewBox="0 0 108 28" fill="none" xmlns="http://www.w3.org/2000/svg">
<path d="M39.18 19.78H43.78V22H36.38V8.04H39.18V19.78ZM50.4797 22.18C49.413 22.18 48.453 21.9467 47.5997 21.48C46.7464 21 46.073 20.3267 45.5797 19.46C45.0997 18.5933 44.8597 17.5933 44.8597 16.46C44.8597 15.3267 45.1064 14.3267 45.5997 13.46C46.1064 12.5933 46.793 11.9267 47.6597 11.46C48.5264 10.98 49.493 10.74 50.5597 10.74C51.6264 10.74 52.593 10.98 53.4597 11.46C54.3264 11.9267 55.0064 12.5933 55.4997 13.46C56.0064 14.3267 56.2597 15.3267 56.2597 16.46C56.2597 17.5933 55.9997 18.5933 55.4797 19.46C54.973 20.3267 54.2797 21 53.3997 21.48C52.533 21.9467 51.5597 22.18 50.4797 22.18ZM50.4797 19.74C50.9864 19.74 51.4597 19.62 51.8997 19.38C52.353 19.1267 52.713 18.7533 52.9797 18.26C53.2464 17.7667 53.3797 17.1667 53.3797 16.46C53.3797 15.4067 53.0997 14.6 52.5397 14.04C51.993 13.4667 51.3197 13.18 50.5197 13.18C49.7197 13.18 49.0464 13.4667 48.4997 14.04C47.9664 14.6 47.6997 15.4067 47.6997 16.46C47.6997 17.5133 47.9597 18.3267 48.4797 18.9C49.013 19.46 49.6797 19.74 50.4797 19.74ZM62.6536 10.74C63.4803 10.74 64.2069 10.9067 64.8336 11.24C65.4603 11.56 65.9536 11.98 66.3136 12.5V10.92H69.1336V22.08C69.1336 23.1067 68.9269 24.02 68.5136 24.82C68.1003 25.6333 67.4803 26.2733 66.6536 26.74C65.8269 27.22 64.8269 27.46 63.6536 27.46C62.0803 27.46 60.7869 27.0933 59.7736 26.36C58.7736 25.6267 58.2069 24.6267 58.0736 23.36H60.8536C61.0003 23.8667 61.3136 24.2667 61.7936 24.56C62.2869 24.8667 62.8803 25.02 63.5736 25.02C64.3869 25.02 65.0469 24.7733 65.5536 24.28C66.0603 23.8 66.3136 23.0667 66.3136 22.08V20.36C65.9536 20.88 65.4536 21.3133 64.8136 21.66C64.1869 22.0067 63.4669 22.18 62.6536 22.18C61.7203 22.18 60.8669 21.94 60.0936 21.46C59.3203 20.98 58.7069 20.3067 58.2536 19.44C57.8136 18.56 57.5936 17.5533 57.5936 16.42C57.5936 15.3 57.8136 14.3067 58.2536 13.44C58.7069 12.5733 59.3136 11.9067 60.0736 11.44C60.8469 10.9733 61.7069 10.74 62.6536 10.74ZM66.3136 16.46C66.3136 15.78 66.1803 15.2 65.9136 14.72C65.6469 14.2267 65.2869 13.8533 64.8336 13.6C64.3803 13.3333 63.8936 13.2 63.3736 13.2C62.8536 13.2 62.3736 13.3267 61.9336 13.58C61.4936 13.8333 61.1336 14.2067 60.8536 14.7C60.5869 15.18 60.4536 15.7533 60.4536 16.42C60.4536 17.0867 60.5869 17.6733 60.8536 18.18C61.1336 18.6733 61.4936 19.0533 61.9336 19.32C62.3869 19.5867 62.8669 19.72 63.3736 19.72C63.8936 19.72 64.3803 19.5933 64.8336 19.34C65.2869 19.0733 65.6469 18.7 65.9136 18.22C66.1803 17.7267 66.3136 17.14 66.3136 16.46ZM73.2883 9.6C72.7949 9.6 72.3816 9.44667 72.0483 9.14C71.7283 8.82 71.5683 8.42667 71.5683 7.96C71.5683 7.49333 71.7283 7.10667 72.0483 6.8C72.3816 6.48 72.7949 6.32 73.2883 6.32C73.7816 6.32 74.1883 6.48 74.5083 6.8C74.8416 7.10667 75.0083 7.49333 75.0083 7.96C75.0083 8.42667 74.8416 8.82 74.5083 9.14C74.1883 9.44667 73.7816 9.6 73.2883 9.6ZM74.6683 10.92V22H71.8683V10.92H74.6683ZM83.5747 10.76C84.8947 10.76 85.9614 11.18 86.7747 12.02C87.588 12.8467 87.9947 14.0067 87.9947 15.5V22H85.1947V15.88C85.1947 15 84.9747 14.3267 84.5347 13.86C84.0947 13.38 83.4947 13.14 82.7347 13.14C81.9614 13.14 81.348 13.38 80.8947 13.86C80.4547 14.3267 80.2347 15 80.2347 15.88V22H77.4347V10.92H80.2347V12.3C80.608 11.82 81.0814 11.4467 81.6547 11.18C82.2414 10.9 82.8814 10.76 83.5747 10.76Z" fill="#7D7D7D"/>
<path d="M12 6C13.0609 6 14.0783 6.42143 14.8284 7.17157C15.5786 7.92172 16 8.93913 16 10C16 11.0609 15.5786 12.0783 14.8284 12.8284C14.0783 13.5786 13.0609 14 12 14C10.9391 14 9.92172 13.5786 9.17157 12.8284C8.42143 12.0783 8 11.0609 8 10C8 8.93913 8.42143 7.92172 9.17157 7.17157C9.92172 6.42143 10.9391 6 12 6ZM12 16C16.42 16 20 17.79 20 20V22H4V20C4 17.79 7.58 16 12 16Z" fill="#CFD0CB"/>
</svg>
