<?xml version="1.0" encoding="UTF-8"?>
<!DOCTYPE svg PUBLIC "-//W3C//DTD SVG 1.1//EN" "http://www.w3.org/Graphics/SVG/1.1/DTD/svg11.dtd">
<!-- Creator: CorelDRAW X7 -->
<svg xmlns="http://www.w3.org/2000/svg" xml:space="preserve" width="205.64mm" height="205.64mm" version="1.1" style="shape-rendering:geometricPrecision; text-rendering:geometricPrecision; image-rendering:optimizeQuality; fill-rule:evenodd; clip-rule:evenodd"
viewBox="0 0 20564 20564"
 xmlns:xlink="http://www.w3.org/1999/xlink">
 <defs>
  <style type="text/css">
   <![CDATA[
    .fil4 {fill:none}
    .fil0 {fill:#02B209}
    .fil2 {fill:white}
    .fil1 {fill:black;fill-opacity:0.250980}
    .fil3 {fill:#FEFEFE;fill-opacity:0.309804}
   ]]>
  </style>
 </defs>
 <g id="Layer_x0020_1">
  <metadata id="CorelCorpID_0Corel-Layer"/>
  <g id="_2991478660928">
   <path class="fil0" d="M5163 1793l10238 0c1853,0 3370,1517 3370,3370l0 10238c0,1853 -1517,3370 -3370,3370l-10238 0c-1853,0 -3370,-1517 -3370,-3370l0 -10238c0,-1853 1517,-3370 3370,-3370z"/>
   <path class="fil1" d="M5341 10431c0,-2595 2110,-4706 4705,-4706 1255,0 2397,494 3241,1298 902,858 1464,2068 1464,3408 0,2594 -2111,4705 -4705,4705 -956,0 -1846,-287 -2589,-778l-1808 579 588 -1748c-564,-775 -896,-1728 -896,-2758zm3669 -915c75,-81 102,-140 153,-235 52,-94 31,-180 -2,-253 -34,-73 -296,-794 -405,-1088 -110,-293 -231,-249 -316,-253 -84,-3 -179,-18 -276,-22 -96,-4 -254,27 -391,166 -138,139 -524,474 -550,1185 -27,709 464,1415 533,1513 68,100 938,1638 2383,2271 1445,633 1453,440 1718,426 265,-14 866,-318 999,-650 133,-332 144,-621 110,-682 -34,-62 -129,-102 -270,-179 -142,-78 -838,-453 -968,-506 -131,-53 -226,-81 -328,60 -101,140 -390,455 -478,548 -88,93 -172,102 -314,24 -141,-77 -600,-247 -1133,-759 -415,-398 -686,-882 -765,-1029 -79,-148 -1,-223 74,-292 67,-62 151,-163 226,-245zm-4616 915c0,1067 296,2066 811,2918l-1020 3033 3129 -1002c810,448 1741,703 2732,703 3122,0 5652,-2531 5652,-5652 0,-3122 -2530,-5652 -5652,-5652 -3122,0 -5652,2530 -5652,5652z"/>
   <path class="fil2" d="M5588 10233c0,-2595 2110,-4705 4705,-4705 1255,0 2397,494 3241,1297 901,858 1464,2069 1464,3408 0,2595 -2111,4705 -4705,4705 -956,0 -1846,-286 -2589,-778l-1808 579 588 -1747c-564,-776 -896,-1729 -896,-2759zm3669 -914c75,-82 102,-141 153,-236 52,-94 31,-179 -2,-253 -34,-73 -296,-794 -405,-1087 -110,-294 -231,-250 -316,-253 -84,-3 -180,-19 -276,-22 -96,-4 -254,26 -391,166 -138,139 -524,474 -550,1184 -27,710 464,1415 533,1514 68,99 938,1638 2383,2271 1445,632 1452,439 1718,425 265,-14 866,-317 999,-649 133,-332 144,-621 110,-683 -34,-61 -129,-101 -270,-179 -142,-77 -838,-453 -968,-506 -131,-53 -226,-80 -328,60 -101,141 -390,455 -478,549 -88,93 -172,101 -314,24 -141,-78 -601,-248 -1133,-760 -415,-398 -687,-881 -765,-1029 -79,-147 -1,-223 74,-292 67,-62 151,-163 226,-244zm-4616 914c0,1068 296,2067 811,2919l-1020 3032 3129 -1002c810,448 1741,703 2732,703 3122,0 5652,-2530 5652,-5652 0,-3122 -2530,-5652 -5652,-5652 -3122,0 -5652,2530 -5652,5652z"/>
   <path class="fil3" d="M15029 3182c1290,0 2344,1069 2344,2376l0 9835c0,1307 -1054,2376 -2344,2376l778 0c1289,0 2344,-1069 2344,-2376l0 -10623c0,-1307 -1055,-2376 -2344,-2376l-10481 0c-1290,0 -2344,1069 -2344,2376l0 788c0,-1307 1054,-2376 2344,-2376l9703 0z"/>
  </g>
  <rect class="fil4" width="20564" height="20564"/>
 </g>
</svg>
